<?xml version="1.0" encoding="UTF-8" standalone="no"?>
<!-- Created with Inkscape (http://www.inkscape.org/) -->

<svg
   xmlns:dc="http://purl.org/dc/elements/1.1/"
   xmlns:cc="http://creativecommons.org/ns#"
   xmlns:rdf="http://www.w3.org/1999/02/22-rdf-syntax-ns#"
   xmlns:svg="http://www.w3.org/2000/svg"
   xmlns="http://www.w3.org/2000/svg"
   xmlns:sodipodi="http://sodipodi.sourceforge.net/DTD/sodipodi-0.dtd"
   xmlns:inkscape="http://www.inkscape.org/namespaces/inkscape"
   width="20mm"
   height="20mm"
   viewBox="0 0 20 20"
   version="1.1"
   id="svg8"
   inkscape:version="0.92.4 (5da689c313, 2019-01-14)"
   sodipodi:docname="variable2.svg">
  <defs
     id="defs2" />
  <sodipodi:namedview
     id="base"
     pagecolor="#ffffff"
     bordercolor="#666666"
     borderopacity="1.0"
     inkscape:pageopacity="0.0"
     inkscape:pageshadow="2"
     inkscape:zoom="7.9195959"
     inkscape:cx="48.065254"
     inkscape:cy="36.359263"
     inkscape:document-units="mm"
     inkscape:current-layer="text858"
     showgrid="false"
     inkscape:window-width="1920"
     inkscape:window-height="1147"
     inkscape:window-x="-8"
     inkscape:window-y="-8"
     inkscape:window-maximized="1"
     showguides="true"
     inkscape:guide-bbox="true">
    <sodipodi:guide
       position="-11.392363,26.693543"
       orientation="-0.70710678,0.70710678"
       id="guide888"
       inkscape:locked="false" />
  </sodipodi:namedview>
  <metadata
     id="metadata5">
    <rdf:RDF>
      <cc:Work
         rdf:about="">
        <dc:format>image/svg+xml</dc:format>
        <dc:type
           rdf:resource="http://purl.org/dc/dcmitype/StillImage" />
        <dc:title></dc:title>
      </cc:Work>
    </rdf:RDF>
  </metadata>
  <g
     inkscape:label="Layer 1"
     inkscape:groupmode="layer"
     id="layer1"
     transform="translate(0,-277)">
    <g
       aria-label="{"
       transform="scale(0.99903703,1.0009639)"
       style="font-style:normal;font-weight:normal;font-size:19.55077553px;line-height:125%;font-family:sans-serif;letter-spacing:0px;word-spacing:0px;fill:#000000;fill-opacity:1;stroke:none;stroke-width:0.48876938px;stroke-linecap:butt;stroke-linejoin:miter;stroke-opacity:1"
       id="text830">
      <path
         d="m 8.5074463,294.43074 v 1.37466 H 7.9155772 q -2.377023,0 -3.1884566,-0.70642 -0.8018873,-0.70643 -0.8018873,-2.81616 v -2.28156 q 0,-1.44148 -0.5154989,-1.99517 -0.515499,-0.55368 -1.8710703,-0.55368 H 0.95634115 v -1.36512 H 1.5386641 q 1.3651176,0 1.8710703,-0.54414 0.5154989,-0.55368 0.5154989,-1.97608 v -2.2911 q 0,-2.10973 0.8018873,-2.80661 0.8114336,-0.70642 3.1884566,-0.70642 h 0.5918691 v 1.36511 H 7.8582995 q -1.3460251,0 -1.756515,0.42004 -0.4104899,0.42004 -0.4104899,1.76606 v 2.36748 q 0,1.49876 -0.4391288,2.17655 -0.4295824,0.67778 -1.4796729,0.91644 1.0596368,0.25775 1.4892192,0.93554 0.4295825,0.67778 0.4295825,2.167 v 2.36748 q 0,1.34602 0.4104899,1.76606 0.4104899,0.42004 1.756515,0.42004 z"
         style="stroke-width:0.48876938px"
         id="path866" />
    </g>
    <g
       aria-label="}"
       transform="scale(0.99903703,1.0009639)"
       style="font-style:normal;font-weight:normal;font-size:19.55077553px;line-height:125%;font-family:sans-serif;letter-spacing:0px;word-spacing:0px;fill:#000000;fill-opacity:1;stroke:none;stroke-width:0.48876938px;stroke-linecap:butt;stroke-linejoin:miter;stroke-opacity:1"
       id="text830-4">
      <path
         d="m 11.6407,294.48115 h 0.668239 q 1.336479,0 1.737422,-0.41049 0.41049,-0.41049 0.41049,-1.77561 v -2.36747 q 0,-1.48922 0.429583,-2.16701 0.429582,-0.67778 1.489219,-0.93553 -1.059637,-0.23866 -1.489219,-0.91645 -0.429583,-0.67778 -0.429583,-2.17655 v -2.36747 q 0,-1.35558 -0.41049,-1.76606 -0.400943,-0.42004 -1.737422,-0.42004 H 11.6407 v -1.36512 h 0.601415 q 2.377023,0 3.169364,0.70643 0.801887,0.69687 0.801887,2.8066 v 2.29111 q 0,1.42239 0.515499,1.97608 0.515499,0.54413 1.871071,0.54413 h 0.591869 v 1.36512 h -0.591869 q -1.355572,0 -1.871071,0.55369 -0.515499,0.55368 -0.515499,1.99517 v 2.28156 q 0,2.10973 -0.801887,2.81615 -0.792341,0.70642 -3.169364,0.70642 H 11.6407 Z"
         style="stroke-width:0.48876938px"
         id="path863" />
    </g>
    <g
       aria-label="x"
       style="font-style:normal;font-weight:normal;font-size:10.58333302px;line-height:125%;font-family:sans-serif;letter-spacing:0px;word-spacing:0px;fill:#000000;fill-opacity:1;stroke:none;stroke-width:0.26458332px;stroke-linecap:butt;stroke-linejoin:miter;stroke-opacity:1"
       id="text858">
      <g
         aria-label="x"
         style="font-style:normal;font-variant:normal;font-weight:normal;font-stretch:normal;font-size:10.58333302px;line-height:125%;font-family:Oxford;-inkscape-font-specification:Oxford;letter-spacing:0px;word-spacing:0px;fill:#000000;fill-opacity:1;stroke:none;stroke-width:0.26458332px;stroke-linecap:butt;stroke-linejoin:miter;stroke-opacity:1"
         id="text871"
         transform="matrix(1.7890411,0,0,1.7890411,-7.5538242,-226.06686)">
        <path
           d="m 11.79504,284.64036 q 0,0.64596 -0.485758,0.64596 -0.222209,0 -0.501262,0.27905 -0.273885,0.27905 -0.630452,1.0852 v 0 q 0.144694,0.64079 0.713135,1.9017 0.113688,0.23771 0.242879,0.23771 0.04134,0 0.139526,-0.0207 0.103353,-0.0258 0.139527,-0.0258 0.07235,0 0.07235,0.12919 0,0.093 -0.07235,0.12402 -0.568441,0.0568 -0.862997,0.13953 -0.289388,0.0775 -0.330729,0.0775 -0.05168,0 -0.07235,-0.093 -0.1498616,-0.65113 -0.4185791,-1.92237 v 0 q -0.4650878,1.10588 -0.8164876,1.56063 -0.3513997,0.45475 -0.7027994,0.45475 -0.3824056,0 -0.3824056,-0.1912 0,-0.13436 0.093018,-0.42374 0.098185,-0.28939 0.2067057,-0.28939 0.051676,0 0.1808675,0.0465 0.1343587,0.0413 0.2118734,0.0413 0.3048909,0 0.578776,-0.48576 0.2738851,-0.48576 0.5374349,-0.99736 v 0 q -0.1756999,-0.58911 -0.5581055,-1.64331 -0.2118734,-0.49609 -0.4289144,-0.49609 -0.036174,0 -0.08785,0.0103 -0.051676,0.0103 -0.082682,0.0103 -0.093018,0 -0.093018,-0.13953 0,-0.11368 0.098185,-0.11368 0.041341,0 0.1395263,0.0103 0.098185,0.0103 0.1550293,0.0103 0.2067057,0 0.5012614,-0.0879 0.2945556,-0.0879 0.3410644,-0.0879 0.041341,0 0.077515,0.0827 0.062012,0.49092 0.3772377,1.83968 v 0 q 0.413411,-0.89917 0.738973,-1.41077 0.330729,-0.51159 0.780314,-0.51159 0.201538,0 0.201538,0.25321 z"
           style="stroke-width:0.26458332px"
           id="path883"
           inkscape:connector-curvature="0" />
      </g>
    </g>
  </g>
</svg>
